<?xml version="1.0" encoding="utf-8"?>
<!-- Generator: Adobe Illustrator 18.0.0, SVG Export Plug-In . SVG Version: 6.00 Build 0)  -->
<!DOCTYPE svg PUBLIC "-//W3C//DTD SVG 1.1//EN" "http://www.w3.org/Graphics/SVG/1.1/DTD/svg11.dtd">
<svg version="1.1" id="Layer_1" xmlns="http://www.w3.org/2000/svg" xmlns:xlink="http://www.w3.org/1999/xlink" x="0px" y="0px"
	 viewBox="0 0 608.4 326.6" enable-background="new 0 0 608.4 326.6" xml:space="preserve">
<g id="Layer_1_1_">
	<g>
		<g>
			<path fill="#1976D2" d="M511.3,102.5c-0.3,0.3-0.5,0.7-0.8,1c-0.2,0.4-0.3,0.8-0.5,1.2c-0.2,0.6-0.1,1.8,0.1,2.4
				c0.2,0.7,0.6,1.5,1.2,2c0.6,0.5,1.4,1,2.2,1.1c0.5,0.1,1,0.1,1.6,0.1c2.4-0.1,4.4-2.1,4.3-4.6c0-1.3-0.6-2.4-1.5-3.2
				c-0.1-0.1-0.2-0.2-0.3-0.3C515.8,100.6,512.9,100.7,511.3,102.5z"/>
			<path fill="#1976D2" d="M622.6,120.5c-0.3,0.6-0.7,1.2-1.1,1.8c-0.1,0.1-0.4,0.6-0.5,0.6c-0.2,0.3-0.5,0.6-0.8,0.9
				c-1.4,1.6-2,2-3.4,3c-3,2.1-4.9,2.9-8.6,3.9c-0.4,0.1-0.8,0.2-1.2,0.3c-0.1,0-0.5,0.1-0.7,0.1c-0.7,0.1-1.4,0.2-2.1,0.2
				c-0.8,0.1-1.6,0.1-2.4,0.1c-0.4,0-0.8,0-1.2,0c-0.2,0-0.4,0-0.7,0c0,0-0.1,0-0.1,0c-2-0.2-3.4-0.5-4.7-1c0.6-1.3,1.1-2.7,1.7-4.1
				c2.9-7.7,4.7-20-4.7-24c-10.3-4.5-15.1,9.1-14.4,17c0.5,5,2.4,9.6,5.6,13.3c-0.3,0.4-0.7,0.7-1,1.1c-1.5,1.5-2.8,2.7-4.7,3.7
				c0.2-0.1-0.2,0-0.5,0.1c-0.1,0-0.2,0-0.4,0.1c0-0.1-0.5-0.1-0.3,0c0,0,0,0,0,0c0,0,0,0-0.1,0c0-0.1-0.1-0.1-0.3-0.3
				c-1.1-1-1.3-3.5-1.3-5.3c-0.2-5.4,0.7-10.7-0.4-16c-0.6-3.1-2.6-7-5.7-8.4c-3.1-1.4-6.1-0.4-8.5,1.8c-2.2,2-3.8,4.8-5.1,7.8
				c-1.5-3.6-4.2-6.2-9-5.4c-3.3,0.6-5.8,3.7-7.5,6.3c-0.6,0.9-1.2,1.9-1.6,2.9c-2.1-3.1-7.1-2.2-8,1.4c-0.7,2.7-0.7,5.5-0.8,8.3
				c0,1.5-0.1,3-0.1,4.5c0,0.8-0.1,1.7-0.1,2.5c0,0.3,0,0.6-0.1,0.9c0,0-0.1,0.7-0.1,0.8c-0.2,1.4-0.4,2.8-0.8,4.2
				c-0.1,0.2-0.1,0.4-0.2,0.6c0.1-0.2-0.2,0.5-0.2,0.6c-0.1,0.2-0.6,1-0.7,1.2c-0.2,0.2-0.5,0.4-0.6,0.5c-0.1,0-0.4,0.2-0.6,0.2
				c0,0-0.1,0-0.1,0c0,0,0,0-0.1,0c-0.4,0-0.7,0-1.1,0c1,0-1-0.4-0.9-0.2c-0.3-0.2-0.6-0.4-0.7-0.4c-0.4-0.4-0.9-0.9-0.8-0.8
				c-0.4-0.5-0.7-1-1-1.5c0-0.1-0.2-0.5-0.3-0.6c-0.1-0.2-0.2-0.5-0.3-0.8c-0.5-1.4-0.9-2.9-1.2-4.4c0-0.1,0-0.1,0-0.1
				c0-0.1,0-0.2-0.1-0.4c-0.1-0.4-0.1-0.9-0.2-1.3c-0.1-0.9-0.2-1.8-0.2-2.7c-0.2-3.3-0.1-6.6,0.2-9.9c0,0,0,0,0-0.1
				c0.3-2.1,0.6-4.2,0.9-6.3c0.4-2.4-0.8-4.7-3.3-5.3c-2.3-0.6-4.8,0.9-5.3,3.3c-0.6,2.6-1,5.4-1.2,8.1c-0.7,4.2-1.5,8.4-2.7,12.6
				c-0.6,2-0.9,2.7-1.6,4.2c-0.3,0.7-0.7,1.5-1.1,2.2c-0.2,0.3-0.4,0.7-0.6,1c-0.1,0.1-0.2,0.2-0.2,0.3c-0.1,0.1-0.2,0.2-0.3,0.3
				c-0.4,0.5-0.8,0.9-1.3,1.4c0.2-0.2-1,0.7-1.3,0.8c0,0,0,0-0.1,0c0,0-0.1,0-0.1,0c-0.3,0.1-0.6,0.2-1,0.3c0,0,0,0,0,0
				c0,0-0.1,0-0.2,0c-0.4,0-0.8,0-1.2,0c0.6,0-0.5-0.1-0.6-0.1c-0.4-0.1-0.8-0.2-1.3-0.3c-0.3-0.1-0.8-0.3-1.5-0.8
				c0.2,0.1-0.6-0.5-0.6-0.5c-0.3-0.3-0.5-0.5-0.8-0.8c0.4,0.4-0.4-0.6-0.4-0.6c-0.3-0.5-0.6-1-0.9-1.5c-1.4-2.6-2.2-7.2-2.6-10.4
				c-0.5-4.3-0.8-8.6-0.9-12.9c-0.1-5.7,0.5-11.4,1.1-17.1c7.9-1.8,15.7-3.4,23.8-3.9c2.9-0.2,4.3-2.6,4.1-4.9
				c0-2.3-1.5-4.5-4.4-4.4c-7.7,0.4-15.2,1.9-22.7,3.6c0.1-1.5,0.2-2.8,0.3-3.8c0.3-2.6,0-4.7-0.5-7.2c-0.5-2.4-3.4-3.6-5.5-2.9
				c-2.5,0.8-3.6,3.2-3.1,5.5c0.1,0.6,0.2,1.3,0.2,1.9c0,0,0,0,0,0c0,0,0.2,0.1,0.2,0.2c0,0.1,0.1,0.2,0.1,0.2c0,0.1,0,0.1,0,0.2
				c-0.3,2.6-0.4,5.3-0.6,8c-9.6,2.2-19.3,4.1-29.2,3.8c-2.9-0.1-4.3,2.2-4.1,4.5c0,2.3,1.5,4.7,4.4,4.8c9.5,0.3,18.8-1.5,28-3.5
				c-0.4,4-0.8,8.1-0.9,12.1c-0.2,4.7,0.2,9.5,0.6,14.2c0.4,4.3,1,8.7,2.4,12.8c1.4,4.3,3.9,7.9,7.6,10.5c3.4,2.3,8,2.8,11.9,1.9
				c4.6-1,7.7-4.5,10-8.6c1.3,3.1,3.3,5.8,6.3,7.6c3.4,2.1,8,2,11.5,0.3c1.3-0.6,2.3-1.5,3.2-2.6c2.6,1.5,7,0.2,6.9-3.8
				c0-0.6,0-1.2,0.1-1.8c0,0,0.1-1,0.1-1.2c0.1-0.7,0.2-1.4,0.3-2.1c0.5-3.2,1.2-6.4,2-9.6c0.4-1.6,0.9-3.2,1.5-4.8
				c0.1-0.3,0.2-0.6,0.3-0.8c0-0.1,0.1-0.2,0.1-0.3c0-0.1,0.1-0.2,0.1-0.3c0.3-0.8,0.7-1.6,1-2.3c0.3-0.6,0.6-1.2,0.9-1.8
				c0.1-0.2,0.9-1.3,0.9-1.4c0.2-0.2,0.4-0.5,0.6-0.7c0.1,0.4,0.2,0.8,0.3,1.2c0,0.1,0.1,0.5,0.1,0.7c0,0.3,0.1,0.5,0.1,0.8
				c0.2,1.7,0.3,3.4,0.4,5.1c0.2,5.3-0.2,10.7-0.6,16c-0.1,2.4,2.3,4.4,4.6,4.3c2.6-0.1,4.1-2.1,4.3-4.5c0.1-0.4,0.1-0.8,0.2-1.1
				c0.2-1.2,0.4-2.3,0.7-3.5c0.7-3,1.4-5.9,2.3-8.9c0.5-1.5,0.9-3.1,1.4-4.6c0.3-0.8,0.5-1.5,0.8-2.3c0.1-0.3,0.2-0.5,0.3-0.8
				c-0.1,0.2,0.3-0.9,0.4-1c0.5-1.3,1.1-2.6,1.8-3.9c0.3-0.6,0.6-1.1,0.9-1.6c0.1-0.1,0.1-0.2,0.2-0.3c0,0.1,0.1,0.3,0.2,0.5
				c0.8,2.3,0.7,4.9,0.6,7.3c-0.2,5.4-0.8,10.8,1.6,15.8c2.4,4.8,7.5,6.9,12.5,5.1c4-1.4,7.4-4.6,10.2-7.8
				c13.7,6.4,32.7,0.3,39.9-13C633.1,119.7,625.3,115.5,622.6,120.5z M548.3,120.2C548.3,120.2,548.3,120.2,548.3,120.2
				C548.3,120.2,548.3,120.2,548.3,120.2C548.3,120.2,548.3,120.2,548.3,120.2z M546.7,119.7C546.7,119.7,546.7,119.7,546.7,119.7
				C546.6,119.7,546.6,119.7,546.7,119.7C546.6,119.7,546.6,119.7,546.7,119.7z M576.4,137.4C576.4,137.4,576.4,137.4,576.4,137.4
				c0.1,0,0.1,0,0.2,0.1C576.5,137.5,576.4,137.4,576.4,137.4z M588.4,110.1C588.4,110.1,588.4,110.1,588.4,110.1L588.4,110.1
				C588.4,110.1,588.4,110.1,588.4,110.1C588.4,110.1,588.4,110.1,588.4,110.1z M588.5,110.2L588.5,110.2
				C588.5,110.2,588.5,110.2,588.5,110.2C588.5,110.2,588.5,110.2,588.5,110.2C588.5,110.2,588.5,110.2,588.5,110.2z M588.6,110.1
				C588.6,110.1,588.6,110.1,588.6,110.1C588.6,110.1,588.6,110.1,588.6,110.1C588.6,110.1,588.6,110.1,588.6,110.1
				C588.6,110.1,588.6,110.1,588.6,110.1z M587.2,112.9c0.3-1,0.2-0.9,0.8-1.9c0,0,0.3-0.5,0.4-0.6c0.1-0.1,0.1-0.1,0.2-0.2
				c0.3,0.1,0.6,0.4,1,0.8c-0.6-0.6,0.2,0.4,0.3,0.5c0,0.1,0.1,0.1,0.1,0.1c0,0.1,0,0.2,0.1,0.4c0.1,0.4,0.2,0.8,0.3,1.3
				c-0.2-0.9,0,0.6,0,0.6c0.1,2.2-0.2,3.5-0.7,5.8c-0.4,1.6-0.9,3.1-1.5,4.6c-0.2-0.3-0.3-0.6-0.5-0.9c0.4,0.8-0.2-0.7-0.3-0.8
				c-0.7-2-0.8-2.7-0.9-4.5C586.4,116,586.6,115.1,587.2,112.9z"/>
		</g>
		<path fill="#FFFFFF" d="M130.8,24.5c-21.5,0-38.9,17.4-38.9,38.9s17.4,38.9,38.9,38.9s38.9-17.4,38.9-38.9
			C169.7,41.9,152.3,24.5,130.8,24.5z M135,71.2L122,78.4V63.9V49.4l13.1,7.2l13,7.2L135,71.2z"/>
		<path fill="#FFFFFF" d="M370,24.5c-21.5,0-38.9,17.4-38.9,38.9c0,21.5,17.4,38.9,38.9,38.9c21.5,0,38.9-17.4,38.9-38.9
			C408.9,41.9,391.5,24.5,370,24.5z M367,76.8h-10v-28h10V76.8z M383,76.8h-10v-28h10V76.8z"/>
		<path fill="#FFFFFF" d="M75.3,31.6c5.4,4.6,8.2,11.7,8.2,21.3c0,9.6-2.8,16.6-8.4,21c-5.6,4.4-14.1,6.7-25.6,6.7H39.2v21.6H21.9
			V24.7h27.4C61.2,24.7,69.9,27,75.3,31.6z M62.6,62.1c2.1-2.3,3.1-5.7,3.1-10.2c0-4.5-1.3-7.7-4-9.5c-2.7-1.9-6.9-2.8-12.6-2.8
			h-9.9v26.1h11.6C56.6,65.6,60.6,64.4,62.6,62.1z"/>
		<path fill="#FFFFFF" d="M234,31.6c5.4,4.6,8.2,11.7,8.2,21.3c0,9.6-2.8,16.6-8.4,21c-5.6,4.4-14.1,6.7-25.6,6.7h-10.3v21.6h-17.3
			V24.7H208C219.9,24.7,228.6,27,234,31.6z M221.3,62.1c2.1-2.3,3.1-5.7,3.1-10.2c0-4.5-1.4-7.7-4-9.5c-2.7-1.9-6.9-2.8-12.6-2.8
			h-9.9v26.1h11.6C215.3,65.6,219.2,64.4,221.3,62.1z"/>
		<path fill="#FFFFFF" d="M293.3,86.9c8.5,0,15.5-3.4,20.9-10.1l11.1,11.4c-8.8,9.9-19.2,14.9-31.1,14.9c-11.9,0-21.8-3.8-29.5-11.3
			c-7.7-7.5-11.6-17.1-11.6-28.6s3.9-21.1,11.8-28.8c7.9-7.7,17.5-11.5,28.9-11.5c12.7,0,23.4,4.8,31.9,14.5l-10.8,12.2
			c-5.5-6.8-12.3-10.2-20.4-10.2c-6.5,0-12.1,2.1-16.7,6.4c-4.6,4.3-6.9,10-6.9,17.2c0,7.2,2.2,13,6.5,17.4
			C281.8,84.7,287.1,86.9,293.3,86.9z"/>
		<g>
			<path fill="#FFFFFF" d="M510.8,85V53.6l36.9,48.6H565V24.7h-17.3v49.9l-38-49.9h-16.2v62.7c5.8-1.2,11.2-2,16.7-2.3
				C510.4,85,510.6,85,510.8,85z"/>
		</g>
		<path fill="#FFFFFF" d="M480.7,50.4c0-9-2.6-15.6-7.7-19.6c-5.1-4.1-13.7-6.1-25.8-6.1h-29.4v77.5h17.3V77.5h12l11.6,16.7
			c6-0.6,11.8-1.7,17.5-3c0-0.4,0-0.7,0-1.1c0-0.4,0-0.8,0-1.1L466,74.5C475.8,70.8,480.7,62.8,480.7,50.4z M459.9,59.6
			c-2.1,1.9-6.2,2.9-12.1,2.9h-12.6v-23h13c5.5,0,9.4,0.8,11.6,2.3c2.2,1.6,3.3,4.4,3.3,8.6S462,57.7,459.9,59.6z"/>
	</g>
</g>
<g id="Laag_2">
</g>
</svg>
